<?xml version="1.0" standalone="no"?><!DOCTYPE svg PUBLIC "-//W3C//DTD SVG 1.1//EN" "http://www.w3.org/Graphics/SVG/1.1/DTD/svg11.dtd"><svg t="1610155836818" class="icon" viewBox="0 0 1024 1024" version="1.1" xmlns="http://www.w3.org/2000/svg" p-id="7778" xmlns:xlink="http://www.w3.org/1999/xlink" width="16" height="16"><defs><style type="text/css"></style></defs><path d="M883.833866 473.763578c13.597444 136.332268-100.140575 328.741214-214.134185 440.58786-62.364217 61.341853-121.507987 94.722045-166.440895 94.261981-51.42492-0.511182-121.047923-46.364217-190.977636-125.801917-97.124601-110.56869-195.220447-288.051118-180.089457-416.460064 7.667732-65.226837 43.194888-115.220447 86.543131-157.750799 15.335463-14.926518 163.578275-105.456869 297.047924-105.71246 109.955272 0 244.038339 76.677316 247.207667 78.619808 69.571885 46.926518 112.460064 106.428115 120.843451 192.153355z m0 0" fill="#EF3F2D" p-id="7779"></path><path d="M883.833866 473.763578A238.926518 238.926518 0 0 0 813.597444 323.169329a215.821086 215.821086 0 0 0 0.460064 26.428115c30.670927 196.805112-143.13099 564.85623-396.166134 627.833866 31.284345 20.089457 60.421725 30.977636 85.265176 31.233227 44.932907 0.460064 104.025559-33.073482 166.440894-94.261981 114.095847-111.846645 227.833866-304.306709 214.236422-440.638978z" fill="#B52025" p-id="7780"></path><path d="M262.492013 552.485623a36.396166 36.396166 0 0 1-61.853035-26.27476l0.5623-63.846646a36.396166 36.396166 0 0 1 38.952077-35.782747 37.367412 37.367412 0 0 1 33.789137 38.031949l-0.5623 62.466453a36.29393 36.29393 0 0 1-10.888179 25.559106z m227.373802 4.140575a36.396166 36.396166 0 0 1-61.904154-26.27476l0.562301-63.846646a36.396166 36.396166 0 1 1 72.792332 0.664537l-0.5623 63.846645a36.242812 36.242812 0 0 1-10.888179 25.559106z m227.373802 8.28115a36.29393 36.29393 0 0 1-28.268371 10.223642 37.41853 37.41853 0 0 1-33.584665-38.134185l0.562301-60.984025a37.316294 37.316294 0 0 1 34.453674-37.418531 36.396166 36.396166 0 0 1 38.338658 36.805112l-0.5623 63.846645a36.345048 36.345048 0 0 1-10.888179 25.559106zM373.980831 734.00639a36.396166 36.396166 0 0 1-61.853035-26.274761L312.638978 644.089457a36.396166 36.396166 0 1 1 72.792332 0.664537l-0.5623 63.846645a36.29393 36.29393 0 0 1-10.888179 25.559105z m248.025559 4.140575a36.396166 36.396166 0 0 1-61.853035-26.274761l0.5623-63.846645a36.396166 36.396166 0 0 1 38.952077-35.782747 37.316294 37.316294 0 0 1 33.840255 38.031948l-0.5623 62.466454a36.29393 36.29393 0 0 1-10.888179 25.559105z m-132.140575 167.565495a36.396166 36.396166 0 0 1-61.853035-26.479233l0.5623-63.846646a36.396166 36.396166 0 1 1 72.792332 0.664537l-0.5623 63.846646a36.242812 36.242812 0 0 1-10.888179 25.559105zM369.635783 382.670927A36.396166 36.396166 0 0 1 307.527157 356.345048l0.5623-63.846645a36.396166 36.396166 0 1 1 72.792332 0.613418l-0.5623 63.846645a36.29393 36.29393 0 0 1-10.888179 25.559106z m248.025559 2.862619a36.396166 36.396166 0 0 1-61.853035-26.27476l0.5623-63.846645a36.396166 36.396166 0 0 1 38.952077-35.782748 37.367412 37.367412 0 0 1 33.840255 38.031949l-0.613418 62.210862a36.29393 36.29393 0 0 1-10.888179 25.559106z m0 0" fill="#B52025" p-id="7781"></path><path d="M504.127796 1024h-0.971246c-56.587859-0.5623-128.460064-47.079872-202.325879-131.015974-99.527157-113.022364-199.361022-295.258786-184.025559-428.370607 7.054313-59.808307 35.782748-112.86901 90.990415-166.900959 15.948882-15.642173 168.332268-109.853035 307.73163-110.057508h0.408945c116.29393 0 254.210863 80.460064 255.591055 81.277955 78.466454 52.907348 118.952077 117.571885 127.488817 203.348243 14.057508 141.035144-102.236422 338.709265-218.632587 453.060703-64.817891 63.642173-127.488818 98.658147-176.255591 98.658147z m12.012779-805.674121h-0.357827c-128.204473 0-272.204473 87.463259-286.261981 101.316294-49.789137 48.86901-75.859425 96.102236-81.789138 148.600639-10.223642 86.900958 40.587859 250.479233 176.357828 404.498402 66.095847 75.041534 133.265176 120.127796 179.629393 120.587859h0.715655c40.178914 0 96.5623-32.715655 154.83706-89.865814 149.265176-146.555911 219.399361-329.968051 209.584665-428.166134-7.565495-76.01278-43.859425-133.520767-114.146965-180.958467-1.175719-0.5623-131.936102-76.01278-238.56869-76.012779z" fill="#010101" p-id="7782"></path><path d="M717.444089 148.805112c11.041534 13.699681-113.789137 48.306709-124.575079 56.230032v0.306709c75.450479 21.72524 141.392971 85.980831 128.051118 103.514377S514.86262 245.367412 506.888179 242.351438c-102.236422 57.559105-226.146965 71.258786-231.71885 51.118211S368.86901 206.313099 424.690096 197.878594v-0.306709c-28.57508-25.559105-100.345048-66.760383-92.01278-84.498403S476.217252 91.450479 502.083067 132.907348h0.306709c12.268371-58.939297 18.095847-94.057508 57.099042-114.198083a12.166134 12.166134 0 0 1 16.613418 5.111821 12.626198 12.626198 0 0 1-5.674121 16.715655c-31.539936 16.306709-32.511182 43.910543-43.14377 93.035144h0.306709c40.332268-36.651757 178.913738 1.43131 189.904154 15.335463z m0 0" fill="#81C05B" p-id="7783"></path><path d="M711.974441 326.389776c-17.175719 0-45.188498-7.667732-92.01278-24.127795-46.00639-16.102236-94.670927-35.782748-111.897763-42.990416C419.98722 306.709265 310.134185 327.616613 275.373802 313.099042a23.616613 23.616613 0 0 1-14.875399-15.335464 27.910543 27.910543 0 0 1 5.111821-22.900958c16.664537-25.559105 76.370607-65.738019 125.955271-83.73163l-10.683706-7.769968c-40.894569-29.597444-73.15016-52.958466-61.853035-76.677316 2.351438-5.111821 8.485623-17.942492 58.428115-20.958466 31.284345-1.891374 82.913738 0.920128 115.220447 18.913738 9.968051-46.00639 20.805112-79.539936 59.808307-99.73163a27.603834 27.603834 0 0 1 21.367412-1.891374 27.14377 27.14377 0 0 1 15.948882 13.801917 28.01278 28.01278 0 0 1-12.370607 37.16294c-17.789137 9.201278-22.492013 21.520767-29.035144 52.805111a186.58147 186.58147 0 0 1 58.479233-3.169329c45.392971 3.527157 110.108626 20.447284 122.683706 35.782748a18.146965 18.146965 0 0 1 3.322684 16.613419c-4.345048 15.335463-26.939297 25.099042-97.124601 49.226837 50.607029 23.821086 92.01278 61.341853 100.549521 87.309904a26.683706 26.683706 0 0 1-2.964856 25.559105c-4.29393 5.367412-10.785942 8.28115-21.367412 8.28115zM505.610224 225.533546l6.747603 2.402556 6.389777 2.555911c119.463259 48.715655 166.798722 61.341853 184.894569 64.357827C690.607029 275.629393 646.28754 236.421725 588.677316 219.808307l-9.047923-2.607029-3.782748-18.964856 7.923323-5.878595c5.111821-3.578275 14.261981-6.900958 41.610224-16.306709 16.86901-5.827476 46.926518-16.153355 65.226837-24.28115-38.236422-13.904153-127.028754-30.261981-152.741214-6.900958l-8.28115 7.514377-14.057508-7.923323-0.255592 1.277955-20.447284 3.884984-5.725239-8.741214c-5.41853-8.587859-21.265176-16.051118-43.501598-20.447284-36.549521-7.463259-77.955272-5.111821-94.773163-0.357828 9.405751 10.530351 33.738019 28.166134 47.897764 38.389777s26.785942 19.373802 36.140575 27.654952l7.258786 6.440894-5.111821 18.86262-9.814697 1.635783C383.744409 219.808307 313.559105 265.099042 294.696486 286.619808c29.341853 3.322684 120.638978-10.223642 204.728434-57.610223zM706.249201 159.386581zM344.485623 122.683706z" fill="#010101" p-id="7784"></path></svg>