<svg xmlns="http://www.w3.org/2000/svg" xmlns:xlink="http://www.w3.org/1999/xlink" viewBox="0 0 1553.5 786.5"><defs><style>.cls-1{fill:#ffca63;}.cls-2{fill:#ff9e5f;}.cls-3{fill:#f78048;}.cls-12,.cls-4,.cls-5{font-size:26px;}.cls-4{fill:#4c4b44;}.cls-4,.cls-5,.cls-6{font-family:SourceHanSansCN-Medium-GBpc-EUC-H, Source Han Sans CN;}.cls-5{fill:#4d4b45;}.cls-6{font-size:22px;}.cls-10,.cls-12,.cls-6{fill:#fff;}.cls-7{fill:#ffb76b;}.cls-8{fill:#fe7a58;}.cls-9{fill:#f45542;}.cls-10{font-size:30px;}.cls-10,.cls-12{font-family:SourceHanSansCN-Bold-GBpc-EUC-H, Source Han Sans CN;}.cls-11{fill:url(#未命名的渐变_36);}.cls-13{fill:url(#未命名的渐变_52);}.cls-14{fill:url(#未命名的渐变_59);}.cls-15{fill:url(#未命名的渐变_36-2);}.cls-16{fill:url(#未命名的渐变_52-2);}.cls-17{fill:url(#未命名的渐变_59-2);}.cls-18{fill:none;stroke:#faca3a;stroke-linecap:round;stroke-miterlimit:10;stroke-width:2.5px;stroke-dasharray:12.02 12.02;}</style><linearGradient id="未命名的渐变_36" x1="205.9" y1="510.09" x2="638.92" y2="510.09" gradientUnits="userSpaceOnUse"><stop offset="0" stop-color="#ffc964"/><stop offset="1" stop-color="#ffb76b"/></linearGradient><linearGradient id="未命名的渐变_52" x1="645.65" y1="510.09" x2="1078.68" y2="510.09" gradientUnits="userSpaceOnUse"><stop offset="0" stop-color="#ff9f5f"/><stop offset="1" stop-color="#f78249"/></linearGradient><linearGradient id="未命名的渐变_59" x1="1084.68" y1="510.09" x2="1517.71" y2="510.09" gradientUnits="userSpaceOnUse"><stop offset="0" stop-color="#fe7a58"/><stop offset="1" stop-color="#f45642"/></linearGradient><linearGradient id="未命名的渐变_36-2" x1="205.9" y1="655.49" x2="638.92" y2="655.49" xlink:href="#未命名的渐变_36"/><linearGradient id="未命名的渐变_52-2" x1="645.65" y1="655.49" x2="1078.68" y2="655.49" xlink:href="#未命名的渐变_52"/><linearGradient id="未命名的渐变_59-2" x1="1084.68" y1="655.49" x2="1517.71" y2="655.49" xlink:href="#未命名的渐变_59"/></defs><title>主课程设计</title><g id="图层_2" data-name="图层 2"><g id="图层_1-2" data-name="图层 1"><path class="cls-1" d="M55.55,296.16h124a19.75,19.75,0,0,1,19.75,19.75V442.55a0,0,0,0,1,0,0H35.79a0,0,0,0,1,0,0V315.92a19.75,19.75,0,0,1,19.75-19.75Z"/><path class="cls-1" d="M226.66,296.16h62.82a20.76,20.76,0,0,1,20.76,20.76v49.47a0,0,0,0,1,0,0H205.9a0,0,0,0,1,0,0V316.93A20.76,20.76,0,0,1,226.66,296.16Z"/><rect class="cls-1" x="35.79" y="450.79" width="163.49" height="118.6"/><path class="cls-2" d="M666.42,216.2h62.82A20.76,20.76,0,0,1,750,237V366.39a0,0,0,0,1,0,0H645.65a0,0,0,0,1,0,0V237A20.76,20.76,0,0,1,666.42,216.2Z"/><path class="cls-2" d="M776.09,216.2h62.82A20.76,20.76,0,0,1,859.67,237V366.39a0,0,0,0,1,0,0H755.32a0,0,0,0,1,0,0V237A20.76,20.76,0,0,1,776.09,216.2Z"/><rect class="cls-2" x="645.65" y="376.44" width="214.01" height="65"/><path class="cls-3" d="M885.43,175.32h62.82A20.76,20.76,0,0,1,969,196.09V366.39a0,0,0,0,1,0,0H864.67a0,0,0,0,1,0,0V196.09A20.76,20.76,0,0,1,885.43,175.32Z"/><path class="cls-3" d="M995.1,175.32h62.82a20.76,20.76,0,0,1,20.76,20.76V366.39a0,0,0,0,1,0,0H974.34a0,0,0,0,1,0,0V196.09A20.76,20.76,0,0,1,995.1,175.32Z"/><rect class="cls-1" x="35.79" y="578.73" width="163.49" height="153.54"/><text class="cls-4" transform="translate(65.54 384.47)">对应阶级</text><text class="cls-5" transform="translate(65.54 520.39)">课程特色</text><text class="cls-5" transform="translate(65.54 661.18)">能力侧重</text><text class="cls-6" transform="translate(236.07 326.28)">启蒙<tspan x="-11" y="28">指令课</tspan></text><path class="cls-1" d="M336.33,296.16h62.82a20.76,20.76,0,0,1,20.76,20.76v49.47a0,0,0,0,1,0,0H315.56a0,0,0,0,1,0,0V316.93A20.76,20.76,0,0,1,336.33,296.16Z"/><text class="cls-6" transform="translate(345.74 326.28)">启蒙<tspan x="-22" y="28">项目制课</tspan></text><path class="cls-7" d="M445.67,256.1h62.82a20.76,20.76,0,0,1,20.76,20.76v89.53a0,0,0,0,1,0,0H424.91a0,0,0,0,1,0,0V276.86A20.76,20.76,0,0,1,445.67,256.1Z"/><text class="cls-6" transform="translate(455.08 286.23)">入门<tspan x="-11" y="30">指令课</tspan></text><path class="cls-7" d="M555.34,256.1h62.82a20.76,20.76,0,0,1,20.76,20.76v89.53a0,0,0,0,1,0,0H534.58a0,0,0,0,1,0,0V276.86a20.76,20.76,0,0,1,20.76-20.76Z"/><text class="cls-6" transform="translate(564.75 286.23)">入门<tspan x="-22" y="28">项目制课</tspan></text><text class="cls-6" transform="translate(676.52 246.07)">基础<tspan x="-11" y="30">指令课</tspan></text><text class="cls-6" transform="translate(782.66 246.07)">基础<tspan x="-22" y="28">项目制课</tspan></text><text class="cls-6" transform="translate(891.59 203.88)">进阶<tspan x="-11" y="30">指令课</tspan></text><text class="cls-6" transform="translate(998.81 203.88)">进阶<tspan x="-22" y="30">项目制课</tspan></text><path class="cls-8" d="M1105.44,135.42h62.82A20.76,20.76,0,0,1,1189,156.18V366.39a0,0,0,0,1,0,0H1084.68a0,0,0,0,1,0,0V156.18A20.76,20.76,0,0,1,1105.44,135.42Z"/><text class="cls-6" transform="translate(1114.85 165.05)">高阶<tspan x="-11" y="30">指令课</tspan></text><path class="cls-8" d="M1215.11,135.42h62.82a20.76,20.76,0,0,1,20.76,20.76V366.39a0,0,0,0,1,0,0H1194.35a0,0,0,0,1,0,0V156.18A20.76,20.76,0,0,1,1215.11,135.42Z"/><text class="cls-6" transform="translate(1224.52 165.05)">高阶<tspan x="-22" y="30">项目制课</tspan></text><path class="cls-9" d="M1324.46,94.44h62.82A20.76,20.76,0,0,1,1408,115.2V366.39a0,0,0,0,1,0,0H1303.69a0,0,0,0,1,0,0V115.2A20.76,20.76,0,0,1,1324.46,94.44Z"/><text class="cls-6" transform="translate(1311.87 125.87)">高阶探索<tspan x="11" y="28">指令课</tspan></text><path class="cls-9" d="M1434.13,94.44h62.82a20.76,20.76,0,0,1,20.76,20.76V366.39a0,0,0,0,1,0,0H1413.36a0,0,0,0,1,0,0V115.2A20.76,20.76,0,0,1,1434.13,94.44Z"/><text class="cls-6" transform="translate(1421.54 125.87)">高阶探索<tspan x="0" y="28">项目制课</tspan></text><rect class="cls-1" x="205.9" y="376.44" width="214.01" height="65"/><text class="cls-10" transform="translate(295.41 420.14)">L1</text><rect class="cls-7" x="424.91" y="376.44" width="214.01" height="65"/><text class="cls-10" transform="translate(514.43 420.14)">L2</text><text class="cls-10" transform="translate(735.17 420.14)">L3</text><rect class="cls-3" x="864.67" y="376.44" width="214.01" height="65"/><text class="cls-10" transform="translate(954.19 420.14)">L4</text><rect class="cls-8" x="1084.68" y="376.44" width="214.01" height="65"/><text class="cls-10" transform="translate(1174.2 420.14)">L5</text><rect class="cls-9" x="1303.69" y="376.44" width="214.01" height="65"/><text class="cls-10" transform="translate(1393.21 420.14)">L6</text><rect class="cls-11" x="205.9" y="450.79" width="433.03" height="118.6"/><text class="cls-12" transform="translate(338.03 522.07)">Study·乐学习</text><rect class="cls-13" x="645.65" y="450.79" width="433.03" height="118.6"/><text class="cls-12" transform="translate(778.88 522.07)">Think·乐思考</text><rect class="cls-14" x="1084.68" y="450.79" width="433.03" height="118.6"/><text class="cls-12" transform="translate(1212.04 522.07)">Create·乐创造</text><rect class="cls-15" x="205.9" y="578.73" width="433.03" height="153.54"/><text class="cls-6" transform="translate(356.41 624.88)">学习逻辑思维<tspan x="0" y="38.5">学习数理逻辑</tspan><tspan x="-33" y="77">了解计算机运行原理</tspan></text><rect class="cls-16" x="645.65" y="578.73" width="433.03" height="153.54"/><text class="cls-6" transform="translate(795.8 624.88)">学习工程思维<tspan x="0" y="38.5">学习思维导图</tspan><tspan x="-11.24" y="77">培养debug能力</tspan></text><rect class="cls-17" x="1084.68" y="578.73" width="433.03" height="153.54"/><text class="cls-6" transform="translate(1235.2 624.88)">强化抽象思维<tspan x="0" y="38.5">使用思维导图</tspan><tspan x="-22" y="77">独立创造工程项目</tspan></text><rect class="cls-18" x="1.25" y="1.25" width="1551" height="784" rx="18.67"/></g></g></svg>